<svg width="314" height="50" viewBox="0 0 314 50" fill="none" xmlns="http://www.w3.org/2000/svg">
<path d="M31.4167 0H72.0001L60.8319 31.6571C59.7324 34.7642 56.8168 36.848 53.543 36.848H23.9301C18.5807 36.848 14.8498 31.4949 16.6411 26.4163L24.1277 5.19092C25.2272 2.08385 28.1428 0 31.4167 0Z" fill="#892CDC"/>
<path opacity="0.2" d="M40.5834 50.0004H0L11.1682 18.3433C12.2677 15.2362 15.1833 13.1523 18.4571 13.1523H48.07C53.4194 13.1523 57.1503 18.5055 55.359 23.5841L47.8723 44.8094C46.7728 47.9165 43.8572 50.0004 40.5834 50.0004Z" fill="#892CDC"/>
<path d="M94.1997 32.09V27.59H114.72V32.09H94.1997ZM87.4797 35L100.35 15.8H108.69L121.68 35H113.43L102.3 17.81H106.77L95.7297 35H87.4797ZM134.868 32.93C132.028 32.93 129.688 32.7 127.848 32.24C126.008 31.76 124.648 31.05 123.768 30.11C122.888 29.15 122.448 27.95 122.448 26.51C122.448 25.17 122.878 24.01 123.738 23.03C124.598 22.03 125.938 21.25 127.758 20.69C129.598 20.13 131.968 19.85 134.868 19.85C135.448 19.85 136.038 19.85 136.638 19.85C137.238 19.85 137.828 19.85 138.408 19.85H149.868V23.63C148.568 23.69 147.248 23.63 145.908 23.45C144.588 23.25 143.368 22.99 142.248 22.67L141.918 22.22C142.818 22.5 143.668 22.86 144.468 23.3C145.288 23.74 145.948 24.27 146.448 24.89C146.948 25.51 147.198 26.25 147.198 27.11C147.198 28.35 146.768 29.41 145.908 30.29C145.068 31.15 143.738 31.81 141.918 32.27C140.118 32.71 137.768 32.93 134.868 32.93ZM141.258 41.45V40.64C141.258 40.04 140.988 39.68 140.448 39.56C139.928 39.46 139.098 39.41 137.958 39.41H129.588C128.168 39.41 127.018 39.31 126.138 39.11C125.278 38.91 124.618 38.64 124.158 38.3C123.718 37.96 123.418 37.58 123.258 37.16C123.118 36.76 123.048 36.36 123.048 35.96C123.048 35.1 123.368 34.43 124.008 33.95C124.648 33.45 125.628 33.1 126.948 32.9C128.268 32.7 129.948 32.6 131.988 32.6L134.868 32.93C133.188 32.93 132.018 33.02 131.358 33.2C130.698 33.36 130.368 33.69 130.368 34.19C130.368 34.47 130.498 34.68 130.758 34.82C131.018 34.94 131.368 35 131.808 35H140.658C142.638 35 144.198 35.14 145.338 35.42C146.478 35.72 147.278 36.21 147.738 36.89C148.218 37.59 148.458 38.54 148.458 39.74V41.45H141.258ZM134.868 29C136.188 29 137.248 28.9 138.048 28.7C138.868 28.48 139.458 28.19 139.818 27.83C140.178 27.47 140.358 27.07 140.358 26.63C140.358 26.13 140.178 25.7 139.818 25.34C139.458 24.98 138.878 24.7 138.078 24.5C137.278 24.3 136.208 24.2 134.868 24.2C133.548 24.2 132.478 24.3 131.658 24.5C130.838 24.7 130.238 24.98 129.858 25.34C129.478 25.7 129.288 26.13 129.288 26.63C129.288 27.07 129.468 27.47 129.828 27.83C130.208 28.19 130.808 28.48 131.628 28.7C132.448 28.9 133.528 29 134.868 29ZM171.183 29.72H178.263C178.083 30.88 177.503 31.89 176.523 32.75C175.563 33.61 174.153 34.28 172.293 34.76C170.453 35.22 168.103 35.45 165.243 35.45C162.223 35.45 159.613 35.21 157.413 34.73C155.233 34.25 153.553 33.44 152.373 32.3C151.193 31.16 150.603 29.62 150.603 27.68C150.603 25.76 151.173 24.23 152.313 23.09C153.473 21.93 155.143 21.1 157.323 20.6C159.503 20.1 162.143 19.85 165.243 19.85C168.283 19.85 170.773 20.12 172.713 20.66C174.653 21.2 176.083 22.08 177.003 23.3C177.923 24.5 178.363 26.13 178.323 28.19H157.923C158.023 28.71 158.303 29.19 158.763 29.63C159.243 30.07 159.973 30.43 160.953 30.71C161.953 30.97 163.283 31.1 164.943 31.1C166.663 31.1 168.073 30.98 169.173 30.74C170.293 30.5 170.963 30.16 171.183 29.72ZM164.943 24.2C162.823 24.2 161.203 24.43 160.083 24.89C158.983 25.35 158.333 25.81 158.133 26.27H171.333C171.193 25.75 170.633 25.28 169.653 24.86C168.673 24.42 167.103 24.2 164.943 24.2ZM180.727 20.3H187.927V35H180.727V20.3ZM198.727 19.85C199.907 19.85 201.047 19.98 202.147 20.24C203.247 20.48 204.227 20.9 205.087 21.5C205.967 22.1 206.667 22.92 207.187 23.96C207.707 25 207.967 26.31 207.967 27.89V35H200.767V28.79C200.767 27.29 200.377 26.23 199.597 25.61C198.817 24.97 197.407 24.65 195.367 24.65C194.287 24.65 193.237 24.77 192.217 25.01C191.217 25.25 190.317 25.54 189.517 25.88C188.717 26.2 188.087 26.52 187.627 26.84L187.567 25.7C187.647 25.34 187.917 24.84 188.377 24.2C188.857 23.54 189.547 22.88 190.447 22.22C191.347 21.56 192.477 21 193.837 20.54C195.217 20.08 196.847 19.85 198.727 19.85ZM238.088 28.61C238.088 30.05 237.638 31.28 236.738 32.3C235.838 33.32 234.418 34.1 232.478 34.64C230.538 35.18 228.018 35.45 224.918 35.45C221.818 35.45 219.178 35.2 216.998 34.7C214.838 34.2 213.188 33.38 212.048 32.24C210.928 31.1 210.368 29.58 210.368 27.68C210.368 25.78 210.928 24.26 212.048 23.12C213.188 21.96 214.838 21.13 216.998 20.63C219.178 20.11 221.818 19.85 224.918 19.85C228.018 19.85 230.528 20.12 232.448 20.66C234.368 21.2 235.778 21.98 236.678 23C237.578 24.02 238.038 25.24 238.058 26.66H231.458C231.138 25.88 230.418 25.28 229.298 24.86C228.178 24.42 226.718 24.2 224.918 24.2C223.458 24.2 222.188 24.31 221.108 24.53C220.028 24.73 219.188 25.08 218.588 25.58C218.008 26.08 217.718 26.78 217.718 27.68C217.718 28.56 218.008 29.25 218.588 29.75C219.168 30.25 219.998 30.6 221.078 30.8C222.158 31 223.438 31.1 224.918 31.1C226.718 31.1 228.178 30.89 229.298 30.47C230.438 30.03 231.168 29.41 231.488 28.61H238.088ZM239.293 20.3H246.943L255.703 34.4L249.493 35L239.293 20.3ZM266.893 20.3L252.283 41H244.933L251.203 32.51L259.243 20.3H266.893ZM290.433 15.8H300.033L286.533 27.2L286.233 27.44L277.533 35H267.933L282.033 23.18L282.243 23L290.433 15.8ZM277.833 15.8L286.263 23.21L286.443 23.39L300.333 35H290.733L281.673 27.17L281.553 27.05L268.233 15.8H277.833ZM303.773 15.8H311.273V35H303.773V15.8Z" fill="#892CDC"/>
</svg>
